<mxfile host="65bd71144e">
    <diagram name="Page-1" id="hOQEGzFi4pC-sBYxJb0_">
        <mxGraphModel dx="921" dy="825" grid="1" gridSize="10" guides="1" tooltips="1" connect="1" arrows="1" fold="1" page="0" pageScale="1" pageWidth="1100" pageHeight="850" math="0" shadow="0">
            <root>
                <mxCell id="0"/>
                <mxCell id="1" parent="0"/>
                <mxCell id="2" value="" style="rounded=0;whiteSpace=wrap;html=1;align=left;" vertex="1" parent="1">
                    <mxGeometry x="-280" y="-40" width="380" height="200" as="geometry"/>
                </mxCell>
                <mxCell id="4" value="&lt;meta charset=&quot;utf-8&quot;&gt;&lt;span style=&quot;color: rgb(240, 240, 240); font-family: Helvetica; font-size: 12px; font-style: normal; font-variant-ligatures: normal; font-variant-caps: normal; font-weight: 400; letter-spacing: normal; orphans: 2; text-align: left; text-indent: 0px; text-transform: none; widows: 2; word-spacing: 0px; -webkit-text-stroke-width: 0px; background-color: rgb(24, 20, 29); text-decoration-thickness: initial; text-decoration-style: initial; text-decoration-color: initial; float: none; display: inline !important;&quot;&gt;MainMenu&lt;/span&gt;" style="text;html=1;strokeColor=none;fillColor=none;align=center;verticalAlign=middle;whiteSpace=wrap;rounded=0;" vertex="1" parent="1">
                    <mxGeometry x="-280" y="-60" width="60" height="19" as="geometry"/>
                </mxCell>
                <mxCell id="23" value="" style="group" vertex="1" connectable="0" parent="1">
                    <mxGeometry x="-80" y="20" width="160" height="100" as="geometry"/>
                </mxCell>
                <mxCell id="10" value="" style="rounded=0;whiteSpace=wrap;html=1;align=left;" vertex="1" parent="23">
                    <mxGeometry y="20" width="160" height="80" as="geometry"/>
                </mxCell>
                <mxCell id="11" value="&lt;span style=&quot;color: rgb(240, 240, 240); font-family: Helvetica; font-size: 12px; font-style: normal; font-variant-ligatures: normal; font-variant-caps: normal; font-weight: 400; letter-spacing: normal; orphans: 2; text-indent: 0px; text-transform: none; widows: 2; word-spacing: 0px; -webkit-text-stroke-width: 0px; background-color: rgb(24, 20, 29); text-decoration-thickness: initial; text-decoration-style: initial; text-decoration-color: initial; float: none; display: inline !important;&quot;&gt;PopupMenu&lt;/span&gt;" style="text;html=1;strokeColor=none;fillColor=none;align=left;verticalAlign=middle;whiteSpace=wrap;rounded=0;" vertex="1" parent="23">
                    <mxGeometry width="60" height="19" as="geometry"/>
                </mxCell>
                <mxCell id="12" value="PopupMenuItem" style="rounded=0;whiteSpace=wrap;html=1;" vertex="1" parent="23">
                    <mxGeometry x="16" y="30" width="110" height="40" as="geometry"/>
                </mxCell>
                <mxCell id="13" value="PopupMenuItem" style="rounded=0;whiteSpace=wrap;html=1;" vertex="1" parent="23">
                    <mxGeometry x="26" y="40" width="110" height="40" as="geometry"/>
                </mxCell>
                <mxCell id="14" value="PopupMenuItem" style="rounded=0;whiteSpace=wrap;html=1;" vertex="1" parent="23">
                    <mxGeometry x="36" y="50" width="110" height="40" as="geometry"/>
                </mxCell>
                <mxCell id="24" value="" style="group" vertex="1" connectable="0" parent="1">
                    <mxGeometry x="-260" y="20" width="160" height="100" as="geometry"/>
                </mxCell>
                <mxCell id="25" value="" style="rounded=0;whiteSpace=wrap;html=1;align=left;" vertex="1" parent="24">
                    <mxGeometry y="20" width="160" height="80" as="geometry"/>
                </mxCell>
                <mxCell id="26" value="&lt;span style=&quot;color: rgb(240, 240, 240); font-family: Helvetica; font-size: 12px; font-style: normal; font-variant-ligatures: normal; font-variant-caps: normal; font-weight: 400; letter-spacing: normal; orphans: 2; text-indent: 0px; text-transform: none; widows: 2; word-spacing: 0px; -webkit-text-stroke-width: 0px; background-color: rgb(24, 20, 29); text-decoration-thickness: initial; text-decoration-style: initial; text-decoration-color: initial; float: none; display: inline !important;&quot;&gt;TopMenu&lt;/span&gt;" style="text;html=1;strokeColor=none;fillColor=none;align=left;verticalAlign=middle;whiteSpace=wrap;rounded=0;" vertex="1" parent="24">
                    <mxGeometry width="60" height="19" as="geometry"/>
                </mxCell>
                <mxCell id="27" value="TopMenuItem" style="rounded=0;whiteSpace=wrap;html=1;" vertex="1" parent="24">
                    <mxGeometry x="16" y="30" width="110" height="40" as="geometry"/>
                </mxCell>
                <mxCell id="28" value="TopMenuItem" style="rounded=0;whiteSpace=wrap;html=1;" vertex="1" parent="24">
                    <mxGeometry x="26" y="40" width="110" height="40" as="geometry"/>
                </mxCell>
                <mxCell id="29" value="TopMenuItem" style="rounded=0;whiteSpace=wrap;html=1;" vertex="1" parent="24">
                    <mxGeometry x="36" y="50" width="110" height="40" as="geometry"/>
                </mxCell>
                <mxCell id="IB2V0eGTE76Dotejck5R-29" value="" style="shape=image;verticalLabelPosition=bottom;labelBackgroundColor=default;verticalAlign=top;aspect=fixed;imageAspect=0;image=data:image/png,iVBORw0KGgoAAAANSUhEUgAAASIAAADfCAYAAABSxd7FAAABgWlDQ1BzUkdCIElFQzYxOTY2LTIuMQAAKJF1kctLQkEUhz+1MMowqEVECwlrpdEDpDZBRlggIWaQ1UZvPgIfl3uVkLZB26AgatNrUX9BbYPWQVAUQbStdVGbktu5GhiRZzhzvvnNnMPMGbBGMkpWbxiAbK6ghQN+13x0wWV/xk47Nrpoiym6Oh4KBalrH3dYzHjjNWvVP/evtSwndAUsTcJjiqoVhKeEg6sF1eRt4Q4lHVsWPhX2aHJB4VtTj1f5xeRUlb9M1iLhCbC2CbtSvzj+i5W0lhWWl+POZorKz33MlzgSublZiT3i3eiECeDHxTSTTOBjkFGZfXgZol9W1MkfqOTPkJdcRWaVEhorpEhTwCNqUaonJCZFT8jIUDL7/7evenJ4qFrd4YfGJ8N46wX7FpQ3DePz0DDKR2B7hItcLT9/ACPvom/WNPc+ONfh7LKmxXfgfAM6H9SYFqtINnFrMgmvJ9AahfZraF6s9uxnn+N7iKzJV13B7h70yXnn0jcWYmfBZg3TEQAAAAlwSFlzAAALEwAACxMBAJqcGAAAIABJREFUeJztnXe4XUW5/79Db4rUBEgEKVKkKChVhCAiJZEgWIArKCJeuVYUsN0LXKyoINjwRxHFcsVCBJUqICCIUqSo9E4SSiBAQno+vz/efcjJyT7nzKw1a62993k/z7MfjM9aM9+Zs9e7Z828RXIcx3Ecx3Ecx3Ecx3FGOqFpAY7jlANYX9LrJK07yGdFSU9Kmtzm86ikW0II8+pXvgg3RI7TZQBB0taSJrY+ry/Z5HRJv5c0SdJlIYQZJdtLxg2R43QBwNKSdpF0gMz4bFBRV3MkXSEzSheFEJ6uqB/HcboFIAD7AXdRP7OBU4DVmp4Hx3EaAngjcHUDBmggzwLHAMs3PSeO49QEsCHwi2ZtT1seAg4Blmp6jhzHqQhgKeBEYG6T1iaCm4GNm54vx3EyA6wC/LZhA5PCNGBcrvH7EstxGgbzA7pediLWLawu6XLgwzkac0PkOA0C7Czpb5K2aVpLAZaRdCZwBrBMmYbcj8hxGgI4TNJZkpbL1ORfJd2hJb2nZ0kapUWe1utJWl/SOEm5juavkPTuEML0TO05jlM1wAEZ9mnmAH8EjgLWKaBhWWCP1orm0Qx6rgKWrWK+HMfJDLAVMKPEA/8U8FHglRk1BWAH4JKSxug7uTQ5jlMRwJqYP04RZgL/m9MADaJxT+DWEsboqCr1OY5TAuxV6JqCD/e5wLo1al0KOBSYUkDrPOAtdWl1HCcB4PsFHuq5wBENah4D3FJA99OYW4LjOJ0CcHDBh/nNHaB9JeCCAvr/joeDOE5nAKwAPJL4EN8JbNC09j6wzewTChijQ5vW7jiOJCxyPYUHgTWa1t0O4L8Tx/IQHrXvOM0CvAqLy4rlRWDLpnUPBrYySn1N++Rw7XaEZzWwlqSxap9vd5TMM7Rdvt3Jkh4JIcxpQLbjDAvwVUmfjb1c0sQQwkUVSioNsLKk6yS9IfKWaZI2CiE8X52qArSs6uuxlAf/SLSuA5kB/Ao7avRMck7HAKwHzEr4Ln+hac2xAK8GnkwY25ea1ixJApYBdge+DTycMIAU5gFXAP8FjGl6zM7IBjgz4bt7C112woQlSYvlJWDtJsUuA3wYmJwgOhcXA69rbPDOiAVzXnwu4bu6Z9OaU8GcHm9LGGP9HtfY69f+wN0JQqtgAXAWNXqlOg4WTBrL5U3rLQqwV8I4/1C3uB2B6xIE1sFLwMlUHKfjOJIEnJ7w3dy2ab1FwRYcV0aOczawSh2i1sA2jjuZp4D3VT4ZzogFezhj90F/3bTesmALj1gOrFrM5sD9aTahUb6FFa1znKwA2yR8Dw9qWm9ZSDO8P2nXRpZdemBvWXa4jXK0VxPHSLoIWLVpIU7PsX/kdXMlXValkDoIISDpd5GX70ebtLKlDFHLEn5S0h8kdePey76SbgS6yYA6nc++kdf9KYTwYqVK6iPWEK0uaceB/2fhhNfAcpK+J+nIom0MbFKWb/cRLe45/aSkFbWkx/WWknL4JWwu6W/AgSGEazK05zixP2yxD283cJ2k6ZJeFXHthrKqJeVorYR+lvAePBhzgD8AHwJGJ2pYCtgJ+DpwbyYtO5WeHGdEAyyf8J0b27TenAD/Fznu2JCXYTs8PvUpH8C/Ma/MV2TSE7DN8tMoVyVzCiPEIxvLMbMxsCvm87IFFqDZEfGH3QqwfuR3bU6vzTXw5cixnzHw3uRXM2C8pK8W1DpV0gmSzg0hzC/YxhK0Nsv+LelTrUF+WdLBBZoaLWkSsGsIYVYufU2AbQjuKmkrtQ8mHmyTfhbQLrj4AUlX9tCeRlXEVtOY3Pre9hJTIq9bYo6SDBGwhaSfKz1qf5akr0k6NYQwI/HeJEIID0k6BDhV0jcl7ZbYxHaSzgEO7bYvChYVvZekiZLGyzYGU1lRtsfRbp9jLnClpAslXRxCeLKo1h4m1oM/9qEVls/nLZLeJPuxnCXpRdme6lVVP1MJTI68rniUA7A6xfyEHgVeX7jjEmD7SLHLxYHkeY+tGKwqxPuBSZj3eF0sBK4HPgNs3PQ8dApYmZ8YhnRkxL67u2HhSUPFrM3F6okdB2xV1zgH0bxT5NgfKtpBwAq5pXIDMCrzeIvoPxRzL09hIR0aiNj6e+wNXI3F0nUCdwFHM8IL7FFin6R1/2uBr1K84OFlwJvqHndL+/qRGmdTZH8M2KfAhPwYWKGC8RYCKx6XWhrlDjrM+xrYlvjYnia4FziQHtuIjQX4SuQ8ndHvnlWAD5A3PvO31Jx5AstRFEP6Rj2wNPZApvD/kjuqAWAj0tJ2gtUnbxxgA+Cnidqb5AY6oAJF3QAfi5yfX2ExWmdj6WGrYCFwPjVFDxAfc/Zwkcbflzj4P2POjh0JMA6YnzCeR2hwZYftzX0L+xXpRi4ENmtq/uoGWw3GUKbkdAoP0iakoqKxHxCp6YaB9w4Z4oE9gCkpHh+RdFAIYW7iGGojhHC1pI8n3PJqSf9VkZxBwTYrPyU7Nj9GUsca92GYKOkuLFthN4YBpRJ7crRypSoWcUpOV5lhiD0NW2KOhos1O1r2IMYwU9I7QghPR17fJD+Q9MOE678AxLiuZwFYSdIvJZ2qOJf5TmdpSR+W9BfgNU2LqZjoY/kamCrpvBr7i/WhWmKOBjVErV+vlGTenwsh3JFwfWO0/IM+LunByFtWk3RcdYoWgXl2Xyep69NDtGFLWVzfrk0LqZBOMkSnhhBm19jfhpHXJa2I3qF4h7gHlbbCaJzW62OKoX0/FSc3B3aQ9HdJXZuxL4I1Jf0J+GDTQnKCVXM9VNKVTWtpMV3SmXV11tqHenvk5UmGKDaniiR9oZP3hYbgAkm3Rl67jqQ3ViUEOETSn2Wes3UxR9LDku6XeerWxbKSzgZOpcPcI1LB4vW+IelxST+V1CknhSfXHI6zi+IXLks4NLbdTcdcyveObPQW2QPddYQQFgLHS7oi8pb9Jf0tp4bWKutkSZ/P2W4/Fkq6VtLVkh7TotixJyQ91z+MBQtCXkeL4tHWk7S9pH1UzebqpyRtDry344rvDUHLeO4tO8TYp2E57bhY0mk19xm7cJku6caoK0lzYIxdjnUsxDsI3pW53wCclzDXsbyEHZsfToYa6thrx35YuEFKUb1Y7qALMmVirhSfwY7EO5WHqLnQKPY9fiBS389SGo4tDDeVLisK1w4sViuWbNkcKZ9OZSCXYiWcVsqlsY3mpYFdgB+S5o81HL+nQ1/TMG/2c0mr2toEc2kgvAPYLkHju2MbXYr4YohnVTzGWsACR2Njto7J1Od4zPM1B7fSQFwcsCnwm0xjAPha3WMYDCzB2aHAjRnHVyVzgSKpb3LMVWwc6lxifcmANyYMfnzFY6wN4NrIMV+Toa8tgBcS5nkwHsYelkZXpcDOwF8yjAfs5KnJsYzFAlefyjSeOniahsJpsEiFWC5Nafg/IhudCaxY4RhrBfh05LhL+YlQPJ1Kf2ZjexWdFFQcgInAYxnGVuvrRUv7W7FA0U7JZhDDDOA7wFp1zteAeftbgt6PpDR+bGSjkyocY+0Am0SOewEFY3eAZSgfOT8F2D73+HMBjKb868wT1FAiHHgllj/oXyX11sl0LPj5IDKlWi4xf+9K0D2blLz0WN7nGBp/n8fSDhyGfZn2LvOHwfbGYjdfCz0kpJUhbsctdEFObeyU7Sclx3oTFa34sJw/Z5Dn9bgOHsBWPm+jQwLKgXWxH4xYvp7awS8jG04JHM0Kllvohjaa5gN/xRJL7UZiki7g8cixJzs2UiynU38uoMLTsNxgy/bjKbchn/blHVrPUsC+wCUl/w51MBtLcPYJzGh2VEodYEXshyKW50h1KSB+0/ZdFY1zKG2jgB8lTMDzwK+BI4jIFEn8++6ERN1Fcjr15yS61E0CeAe2n1iE2ZQsuQOsij3Q95WY/zqZQUOplWPAfmDOTxzTsUU6it1I3aWCcQ6la1/MsBRlIXayM2iOZSzvcwwfTtR+WAndp+aZweYgPk9NO84p2OdmwHepLulYldxDjdkeUiB+D7mPx0g91MKsXWwC9trSOWDJ2XI6z4HlWD4Zc8YKrX5+EHnvSQnaV8CSqxXhMmpKalU1wH8XnIMFRKY8xV6/xrfmrdNIfUW9GViv6r9LLJhtOK7AON5fpLOUDdtaJgk4JnHgRXgU27z8deT10XsXxLsFDOReanbVrxLsi3xBwbkYsjQz9vr1Scq7ReRkPraPeRJWxPLIAm1MpgNOSLEf0x8X0P8PinrLE79hu13m8bbT8tUCg6+DT0TqfxXwbIH2n6cH06sCKwO3FZzzJRz2sOq+36e+tKvDcTvwbSzMZtUBWgMWJpLKLBrymG7pHkX7g6HheJYyZaaoaMO2oJY/FJiAOojaqKeYIV0I7Fv13DYF5nJRxGv5L9jD3Pf6dXmBNnLzb8wQHkSEUyEWNlLkoQb4XkwfucDm+p0UK2s0H3hrWQG/i+zsqExjHkrL+AKTUAfjIrSvR7EgyfOqntemwUrnFOEsmj39ur+l4RAgNi3qwLGPprj3+QvA56nYjQN4M8UNJsDHcoiI3bA9sfyQh9WyNBZP1Wm8gDnsjcdyN7XTfkKBdmcDsTnCuxbs73pXtr9GdTyK7Y0cTsa/CxbNX6Yq7xPAB8kYYoWtgLbB0seU4Sxy+D0Rf7pxbobxx+j5XMmJqZrnMaO0H/28XrGI+FS+WcecdgLAhJx/hExMAX4OfAirgVeZIyHwngx6Z2LxcYdRIO8U9pq7M3AKdjhSluso6Pm9xEQDR0qKSe/xuKRX98/wVwXA2rLMgh3h2j4Mz0n6raSrJMUngDKel7RRCGFadlUdCPaQX6tmU6tOlqXnvab1ua/q73N/sO2N72mQTKmJLJAVXbhDi7Jw9n1e0uKZN9eVVefZU1KukvDXSnpntu8vsFeCBaz85Kyl6YsZrHWnc3wdc9lJADvVPMePYwGjR2JBzo2HTmBpNIqcrHYSZ1MyBq7dimglSc9Iinn/PDmE8D9lBMSAOfXdIKn27HM1MVW2GnqpaSF1gRmBHSX9SpYbuwoek610+lY9D9a54okFO+a+SNLmTWtJZKGkT0s6vZJ5Jf7k7PbsnQ+uaTM6P1VnUb5T1zw2DbAclswtJY9NLA9jOcA/ALyGDljxxII5ZcZmOuwEngeqLRyABYnGskmlYhbXdQgwr5JpbZbD6prDpgDWxg5CYtMQx3A/FgR9OLBB02MsC3aa+HXyhzPl5i6g+tUb9qWJjSn5SeWCFte2B8WcrDqdm7AwhUL+KZ0KdiR8LuaakIvnKBmV38lgHuOxAdh10uc2UF/8I3B9pLiFwDa1CdPLHqr7ACdir5GxYSndwAIsi+MRdGgE9nBgv+wHANdUOE+VFbvsFDDHwk5I3l+LI+Vgk5AS7n9J7QKX1Lsa5hPxQeCbWHjI3cCczH+UOpmD+YkcRBfkB8di6z6N1daqmkaT7NcF5mh4IM14lM/DgsErDy0ZdDMP2FDSfRq6LHV/3hpCuCqLqoxg0b/rSdqozWdr5fHhqIMXJV0o6eeS/hRCmN+wnpcBNpX0cUmHK74i7CzZSei1rc83lFbS+9gQwkhyAF1W0h6SJsqqqlb1Cj9fdsI4SdKkEMITFfUTD3BOgvX8F7E1izoA4ODcPx818iSWw3gnGjoZwrxy9yY+9ep0rIjiccCODPA7AU5NnIOuTxhXlNbc74AFVf87cd7aMQP4FXaa2UjqmSG/xNiG4L2SYpOYXyxpYghhYVlhVYI5Yl6v+HFNknS2zBt1/X6fV8t+mZpM4/qwbJX08xDCP6vuDNsnOEzSJyQNlarkaS1a7Vwr6c4QwoIh2v2MbFUUyy9DCO9NuL5nwVakr9PintPr9fvfK2tJb+u+z2OSbgwhzK5feQLYcWIKX25a81CQHv08iyFOaLASQWOwX/nYxGpVcTvwWWD9CuZtDPYLPJgX8GOY1/JRmM9X0koNc81I4c+5x9irpP4tOhJsEzjVBb2xRE5DQbF8MCnZGFNeZcEMx1XYpnru3MrXAx8B1iw5Z9tjgaAD/bfuwcZ7GLABJb/spFUMBbivTH9OF4IlnE9hFnBQ07r7A7wCuDhxHEllUEj3jD1qwP2vwOrJj8Mq7h6HZfy7AEsM9hDpp4DzgIuwaO+o41dslfcuFpWRXoDVVPs2doKTK1Cyf5+bJo5rJr3wS+9IGmaPqA+s0N09sj2RFE6QxaM1Gt+Ded1eJGmrxFuTTmaAf0hK8amaEEL4fYqg1sO3hgbfD+j79ygtuXf1oiw7wM8kXTVwzwbzWzqy9XlSFs19nWwP4YUUnalgxTFT+1i1al1OPUT/ogA7yIIH2yYCG4ILJH2gqYBOLNfxhZJSX1EulTR+qA3WNn09JSnF52K7EMKtibpitSzT0rKOpNGt//b/IDumvUNmuKZJ2ljSbZJuCSHMqULXMJpflLRKwi2bhxDurkqP06FQvD7XzcAbata6HFYBZG4BvYXqSgHPJPZT65wMonkP4N6mdUgS6SWgt2has9MQwDcSvyx9LMQqRGY/0RmgL2D7IQ8U1DkdOw4t0ndqNdfGk+RjBvslIPW1NbeOVQr8rboyBMbJABZHVKZ++BzMmK2eWVcAdqdceokFwNtLaLg0sb8jc85BUbATtl82rGGTxLl7Cd+s7hmSHfFaeyYHyzavi7CcpM9ImoKdMh0FjC7SEP1y7rb0XK1yydOODSFcVuL+yYnXr1uir5xcKGmfhh/s1LmY0vQhiJOPQnFWIYTpwH6SLpFUNB/RcpL2aX3OBP4q6XJJj2pxz89prWtHa/GToa0lTVC+nLtfl3RayTZSDVGnpPw4X+bVvIvM47wJUg1R6lw7HUzhgM8QwgPAjrJTsXLF1Oz0bqfWZyDzJC1bsv2hmCvpqBDCjzO0NSXx+o5YEYUQngJmSvqcpP0akpFqlN0Q9RClYqRCCM/KVjTfyyOnLVUaoackjctkhKTufTWTLNPCnjSRc8ZIfjWrRIXTCKWDNUMI80IIH5V0tKykSbdwu6TtQwg3ZGwz1RBtCcSmzaiaa2SvwO9sqP8dE6/3FVEPkS1qPITwA0l7ySqAdDq/kfTmEMIjmdtNfThWkM1ZJ3B1678frbtjrHbdzom3uSHqIbKmr2glRttE0tckdWJagTsk7S3pXSGEGRW0P1XSzMR79q9ARxH6UojsQP2J6Mcrwcu/xf1VCHF6DGAsljQ9Ngl/lTyKeYUvXcO4f5OobRp1JiMfXPdSLEpwf2LNfceWr+rjqTr+lk4PAWxNc/WapmMR7LXle6ZYGMxudekbCuDWlp5HgVqSvQErYc6JKZxdhzanB8EcD0+j+sTq84DLgaOBNRoY5xqk16XqiLSnwI/7aRpXU5/7F/gbT6hDm9PDYKEY2wAnALcV+BK240UsZ88hdED8EelldB4DUrMaVKG7f+WWXC4Nw/V5QeJczaQLKpo4aTQeq4NtjO4paawW95xeV9La/S6dI+kJLZlz95+y3DodszkOfEpS6irnkyGE06vQEwtWQviPrX++JGl0COHFCvvbVtItibdNCiEcUIUex2kLFhk+FlidLgpwBDZM/JUHSyGyasO6xw7QdETF/V1RYJ7eX6Umx+kpgDsLPGRfalhzAJ7vp+faCvt6W4H5WUDJHNyOM6IAvlTgQXsJaDQQlkV5qvvYuII+lmLRCV0KlRlGp1marMfV65wtC6hNYUVZnu8muWvAvw+voI/3SCqSnfL7uYU4Ts+DuSukMh/YvUHNHxugJ6tPEVZX7okC83JzTh2OM2IA1iQ9DzPYxvVrGtLcrr5Y2TQvfW0vD9xYYD6yaXCcEQnwhYIP3p1YiZ269a7VRsv5GdoNwI8KzkWZrJmO4wArA5MLPoAX0sDrCPDkAB0vAa8s2eanCs4BdEC1E8fperC83EX53wb0/qmNjsKJ/oG3Y0fvRfhZzrE5zogFK+F8T8EHEaw+W20OncAZbTQUymWN7TlNLzjuucCGucfnOCMW4J0FH8Y+zgaWq0nrYCu4pEIJwH9iQchFaTTkxXF6Dmyz9pwSDyXAtUBKSeuiWncepP8oz29sBfjdkmO9HUgpP+04TgzY8fVAz+VUHgK2rFjnqoP0/RjDJCQDVqNYDFl/nqb+LJGOM3IARrUe6DK8CHyICjM7Yo6M7XjbEPfsAdxbcmzzgLdUNS7HcVoA25KelbAd/wQmUMFGNoNn1VziFAvYaojrUzkq91gcxxkE4N2ZHlyAPwPbZ9Z3yiB9zaKVrgQYQ9685N/NOQbHcSIATs70APdxAXZcXvqVjaFzb5+IGapZGbVfBVRZTNNxnHZg6TBSq37EMA04D5hIwcqt2OtjXdxHA/nFnc6ha7Ie9irY6uU0VVfYcJaky2UFFB/XohS7U0IIi6UpwU7E1pKl6d1A0q9V/XfkOkkHhhCerrgfp4NxQ9QhAP8p6buS6qzX9YzMKM2VtI6k0TX3f46kowcaRGfk4YaogwD2kK1CVmtaS8UslPQZSd8OIdC0GKd53BB1GFhq1oslbda0lop4QdJ7QwiXNC3E6RzcEHUg2PH4/0nau2ktmXlA0oQQwr+bFuJ0Fp56swMJITwvaYKkE2Wbzb3ALyTt4EbIcboQYF3gLIrn82maq4Dtmp5Hx3EyALwOuLhho5LCncA+dFFhTMdxIgF2A/7WqIkZmseBDzBMlL7jOF0Oltvo3cBtjZqcxXkM+DwFPbmdkY0vm7scLG/P/pImSnqLmjmAmCppTAhhQQN9Oz2AG6IeAqsLv5/MKL1dVjm2LvYIIVxdY39OD+GGqEdpvSK9TdJWstixvs86rc9QezhPa1FM2mRJ75M0XL7s80IIHygp2xmhuCEagWAbyWtqkXFaXouMztQ2wbB/kbTzMM3OkDQ6hDAzv2LHcUY8wJmRG9b/0bRWpztxz2onhjsirzu8UhWO44xcgF0jV0QLgTFN63W6D18ROTHcGXldkOSvZ47jVAODlxcayL/wsA4nEV8RObHE7hNtLumNVQpxeg83RE4ssa9nknRYZSqcnsQNkRNL7IpIkg4GhnOAdJyXcUPkxJJiiNaQtG9VQpzeww2RE8u9kuYlXO+vZ47j5Af4R+TJGcBcvGiiE4mviJwUUjasl5X0rqqEOL2FGyInhZR9Ismi9h1nWNwQOSmkGqKdgQ0rUeL0FG6InBRuL3DPodlVOD2Hu+I7SQBTJY1KuGWapElaPDnbqyQ9o8WTr/X/3BhCeC6jbMdxegngsoSTs6LMA64EPgqMbXrMjuN0GMDXazBEA7kZ+CLwuqbH7zhOBwAc3IAh6s+FwGZNz4PjOA0BvBa4omFDBDAf+AEwuuk5cRynJoBRwPdaBqCTmAGcAKzS9Bw5jlMhwJHAi42am+GZCry96blyHCczwDLA6Q0bmBQWAJ/As0M6Tm8AvAq4tFm7Upiz8FxIXYf/ejiLAWwi6WJJmzatpQTXSjowhPBM00KcONwQOS8DjJP0G0mrVdjNqZJOlyVP6+9tPUbSbpI2ydTPQ5ImhBD+mak9x3GqBtgGmFnDq9NtQ2gIwObA54CbMvT1OLBOnfPoOE5BgLWBRzI8+LFEvfYBY4AzsJCPovwVWKHqOXQcpwTAcsB1GYxLCickatwYuKBEf+fhp2mO05lgr0JnFXy4by5hGO4uYhiAHYC/F+zzmCrm0HGckmDR7UU4CVi/4L19vL6g5hWAnxTobwGwd+45dBynBMC2pIdszALe07o/AE8VMAh9fK2E9gAcByxM7HM6kJJLyXGcKiE9eHUy8KYBbVyS2EZ/Hqbkvg0wgfTwk++UmznHcbIAvC3x4X0B2KJNOycntjOQnTKMZS/stSuWecBGZft1HKcEwFLArQkP7kJg/CBtTUxopx1nZBrTJxP7/UWOfh3HKQjpic2OH6KtsYltDWQqsHSGMQXg3MS+tyvbr+M4BcB8hh5MeFh/yhD7OJTfsAbYI9PYlgduSOj3ihz9Oo6TCPCRhAd1GrBqRJtlNqwBzso4vk1JOwkcl6tvpxxe12xkcUjCtV8KITwfcd0tRcW0OJBMaTtCCPdIOifhlpT5cBynLMBaxJ8uPQwsH9nuAUnrn/bsl3Gc6xAfvDsV8B/jDsD/CCOH8Yr/e38xhDAn8tqyKyJJOihDG5KkEMIUSadFXj5K0g65+nYcZxiASZGrhLtTVgnYhvXTyWugxXkWWDbjWFcl3tGxsIe3kw9fEY0AgJUk7RV5+a9CCAtj2w4hoPKrotUk7V6yjZdp7W1dGnn5/rn6dYrjhmhksKekFSOv/V2B9nO8nr0zQxv9iR3HZsBrM/ftJOKGaGSwT+R1T6iYUbmpwD0DOYAMzo39+KOkBZHX7puxX6cAbohGBhtGXndR61Urlb8WuGcgoyS9adirIgkhPCtLoh/Da3L16xTDDdHIYN3I6y4p0ngI4SlJDxa5dwBtY9pK8MfI62Lnx6kIN0Qjg9gH7YESfeRYFWXzJ2oRaxzdEDWMG6IeB3NMXD3y8iklusphiF4PjMnQTh+TI6/zSh8N44ao94l9yGZLml6inxtK3NufXTO1I8Ub1nXx5PqN4oao94l97ZhScKO6j39IeqHE/X1skKGNPqZGXre8qi0q6QyDG6LeJ3ZFVOa1TCGEBZKuL9NGi/kZ2pAktcJUYstO+z5Rg7gh6n3KrHJSuSZDG/dnaKM/sa9c0d7kTn7cEPU+0fskGfr6U4Y27srQhqSXN+rXiLy81IrQKYcbot4n+uQow4btbSpnSG4KIdxXUkN/6tqod0rihqj3qW3DtrXZfWyJJn5Ypv82xBqiySU36p2SuCHqcVobttMiLy/tTxNCuFTSlwvc+oKkC8r2P4DoE8PM/TqJuCEaGcS+nm2cqb8TJKXmoj4/hDAzU/99xNYvi50fpyLcEI0MYh+0LFHoIYQFIYSjJH1QUkymx2clfSlH3wOIDRlxQ9QwbohGBrExZO9Iyc44HCGEcyXtLOnhYS79WAghdi8rCmDd0xY6AAADIklEQVRNSW+OvDxHwK7jOEMB7JeQtjV7DmdgNeCrg6Rv/W0V4RXA4Qlj9hLUjlM1wArAjMiH8isV6lgdOBF4rtXXM8Coivr6beR4s/ktOY4zDMBvIh/M+8ibKbGdllcCnwVyp4fta3814ksKFTnhcxynCMBhkQ8mwBFN6y0DcErCWLdvWq/jjBiANYgvx/w4EJtsv6MAxgKzI8c5GS+w2BH4H2GEEEKYpvjo+PUkfaxCOVVyksxLPIaLUkonOY6TAeBDCa8szwGxmR07AmBL4stqA7ylac2OM+IAlgXuTXhQf02XvLoAKwI3J4ytUKEAx3EyAByU8LAC/E/TmocDK3v984QxLQS2aVq344xYWg/tTYnG6MCmdQ8F5gqQwk+a1uw4Ix5g98QHdyYduoIAJmArnFjmABs0rdtxHEnAHxON0dNAbOxWLQDvBmYljuPUpnU7jtMC2BqYm/gQzwXe3wHalwJOStQOMA0LhnUcp1MAjizwMAN8k4rDQIbQvDJ2mpfKfGBcE5odxxkG4IyCxugqYOuatY4D7iio9+g6tTqOkwCwDHBlwYd7IfAjYGzFGrcEfl9QI8CZeCVXx+lssPQc95d40GcBXwOy1pAHNgbOJs1beiB/BpbLqctxnIoAtgBeKPHA93EjcDywaQENAdgOOBm4M4OWh4G1qpgvJy++XHVeBthZ0oWS1s7U5N2SbpLlhO7/eVbSWrIqG32fMZJ2lZTrNe8eSRMy10lzKsINkbMYwPqSLpJU60Z0Zi6X9J4QghdN7BK6IqDRqY8QwiOSdpE0qWktBTld0n5uhBynB8CcBr+SYZ+mLuYBH2p63hzHqQDgEODZho3McDwK7N70XDmOUyFYMvpTiE/BWhfTgWOBFZqeI8dxagJYHzi/UdNjzAG+BazR9Jw4jtMQwBuAKxoyQj/F03j0HH587xQGizWb2Pq8oaJuFkr6i+wUb1IIwctDO47THuy17eNYMGxs2aLBmA1cBBwB5HKudDoYXxE52cH2braVtI4W957u+6wu6Skt6XHd97k5hDCjfuWO4ziO4ziO4ziO4ziO4zTF/we3twek3pZcGAAAAABJRU5ErkJggg==;" vertex="1" parent="1">
                    <mxGeometry x="-260" y="-30" width="52.02" height="40" as="geometry"/>
                </mxCell>
                <mxCell id="30" value="&lt;span style=&quot;color: rgb(240, 240, 240); font-family: Helvetica; font-size: 12px; font-style: normal; font-variant-ligatures: normal; font-variant-caps: normal; font-weight: 400; letter-spacing: normal; orphans: 2; text-indent: 0px; text-transform: none; widows: 2; word-spacing: 0px; -webkit-text-stroke-width: 0px; background-color: rgb(24, 20, 29); text-decoration-thickness: initial; text-decoration-style: initial; text-decoration-color: initial; float: none; display: inline !important;&quot;&gt;bits-fusion&lt;/span&gt;" style="text;html=1;strokeColor=none;fillColor=none;align=left;verticalAlign=middle;whiteSpace=wrap;rounded=0;" vertex="1" parent="1">
                    <mxGeometry x="-207" y="-19.5" width="67" height="19" as="geometry"/>
                </mxCell>
            </root>
        </mxGraphModel>
    </diagram>
</mxfile>